<svg xmlns="http://www.w3.org/2000/svg" xmlns:xlink="http://www.w3.org/1999/xlink" width="58.097" height="66.984"
  viewBox="0 0 58.097 66.984">
  <defs>
    <style>
      .a {
        fill: none;
      }

      .b {
        clip-path: url(#a);
      }

      .c {
        fill: #fff;
      }
    </style>
    <clipPath id="a">
      <rect class="a" width="58.097" height="66.984" />
    </clipPath>
  </defs>
  <g transform="translate(-1696 -629)">
    <g class="b" transform="translate(1696 629)">
      <path class="c"
        d="M1751.22,671.917c-.845-15.043-16.154-29.507-28.954-35.345-23.337-10.637-16.611,8.894-25.441,43.539-8.79,34.49,55.569,12.533,54.395-8.194m-18.913-17.17a2.888,2.888,0,1,1-2.883,2.885,2.885,2.885,0,0,1,2.883-2.885M1719.231,679.9c-4.836,0-8.051-3.822-8.051-8.625s3.215-8.624,8.051-8.624,8.034,3.827,8.034,8.624-3.211,8.625-8.034,8.625m13.113.005c-1.622,0-2.944-3.859-2.944-8.621s1.321-8.624,2.944-8.624,2.939,3.861,2.939,8.624-1.316,8.621-2.939,8.621"
        transform="translate(-1696 -631.158)" />
      <path class="c"
        d="M1736.227,695.123c-2.218,0-3.445,2.214-3.445,4.521s1.227,4.587,3.445,4.587,3.435-2.278,3.435-4.587-1.225-4.521-3.435-4.521"
        transform="translate(-1712.996 -659.553)" />
    </g>
  </g>
</svg>
